<svg width="32" height="32" viewBox="0 0 32 32" fill="none" xmlns="http://www.w3.org/2000/svg">
<path d="M15.9999 31.7947C15.9857 29.718 15.5506 27.665 14.7201 25.76C13.1243 21.9243 10.0757 18.8758 6.24001 17.28C4.33424 16.4493 2.28041 16.0141 0.20292 16C0.135302 16.0005 0.0676607 16.0004 0 16C0.0676621 15.9996 0.135303 15.9996 0.20292 16C2.27652 15.9871 4.32798 15.566 6.24001 14.76C8.13414 13.9422 9.85745 12.7753 11.32 11.3201C12.7715 9.86274 13.9262 8.13746 14.7201 6.23997C15.5506 4.335 15.9857 2.28203 15.9999 0.205388C15.9995 0.136948 15.9995 0.0684839 16 0C16.0004 0.068485 16.0004 0.13695 15.9999 0.205388C16.013 2.27819 16.4343 4.32882 17.2403 6.23997C18.058 8.13418 19.2248 9.85754 20.68 11.3201C22.1425 12.7753 23.8658 13.9422 25.7599 14.76C27.672 15.566 29.7235 15.9871 31.7971 16C31.8647 15.9996 31.9323 15.9996 32 16C31.9323 16.0004 31.8647 16.0005 31.7971 16C29.7196 16.0141 27.6657 16.4493 25.7599 17.28C23.8625 18.0738 22.1373 19.2285 20.68 20.68C19.2248 22.1425 18.058 23.8658 17.2403 25.76C16.4343 27.6712 16.013 29.7219 15.9999 31.7947C16.0004 31.8631 16.0004 31.9315 15.9999 32C15.9995 31.9316 15.9995 31.8631 15.9999 31.7947Z" fill="currentColor"/>
<path d="M16 0.205078C16.0131 2.27788 16.4342 4.32908 17.2402 6.24023C18.0578 8.13435 19.2246 9.85785 20.6797 11.3203C22.1421 12.7755 23.8657 13.942 25.7598 14.7598C27.6717 15.5657 29.7233 15.9871 31.7969 16C29.7194 16.0141 27.6655 16.4496 25.7598 17.2803L25.4062 17.4326C23.6479 18.2189 22.0459 19.3189 20.6797 20.6797C19.2246 22.1421 18.0578 23.8656 17.2402 25.7598C16.435 27.6689 16.014 29.7175 16 31.7881C15.9849 29.7137 15.5493 27.6627 14.7197 25.7598C13.1738 22.0442 10.265 19.0668 6.59766 17.4336L6.24023 17.2803C4.33452 16.4496 2.28055 16.0141 0.203125 16C2.14709 15.9879 4.07148 15.6167 5.87988 14.9062L6.24023 14.7598C8.13426 13.942 9.85788 12.7754 11.3203 11.3203C12.6811 9.95407 13.7811 8.35212 14.5674 6.59375L14.7197 6.24023C15.5502 4.33526 15.9858 2.28172 16 0.205078Z" fill="currentColor"/>
<path d="M3 20C3 19.4477 3.44772 19 4 19C4.55228 19 5 19.4477 5 20V27H12C12.5523 27 13 27.4477 13 28C13 28.5523 12.5523 29 12 29H3V20Z" fill="currentColor"/>
<path d="M29 12C29 12.5523 28.5523 13 28 13C27.4477 13 27 12.5523 27 12L27 5L20 5C19.4477 5 19 4.55229 19 4C19 3.44772 19.4477 3 20 3L29 3L29 12Z" fill="currentColor"/>
<path d="M12 3C12.5523 3 13 3.44772 13 4C13 4.55228 12.5523 5 12 5H5V12C5 12.5523 4.55229 13 4 13C3.44771 13 3 12.5523 3 12V3H12Z" fill="currentColor"/>
<path d="M20 29C19.4477 29 19 28.5523 19 28C19 27.4477 19.4477 27 20 27L27 27L27 20C27 19.4477 27.4477 19 28 19C28.5523 19 29 19.4477 29 20L29 29L20 29Z" fill="currentColor"/>
</svg>
