<svg width="32" height="32" viewBox="0 0 32 32" fill="none" xmlns="http://www.w3.org/2000/svg">
<path fill-rule="evenodd" clip-rule="evenodd" d="M20.7345 12.8891C20.8022 12.8891 20.8135 12.9231 20.7796 12.9683L19.6385 14.9706L16.0796 21.2376C16.0796 21.2715 16.0457 21.2715 16.0118 21.2715C15.9779 21.2715 15.9666 21.2715 15.944 21.2376L11.2326 13.0136C11.1987 12.9683 11.2326 12.9457 11.2665 12.9457H11.5716L20.7458 12.9118H20.7345V12.8891ZM12.1591 1.93891C12.1252 1.93891 12.1139 1.93891 12.0913 1.97285L8.1821 8.82806C8.1482 8.89593 8.08041 8.92986 8.00133 8.92986H4.09213C4.01304 8.92986 3.99045 8.9638 4.04694 9.03167L11.967 22.9005C12.0009 22.9457 11.9783 22.9796 11.9218 22.9796H8.11431C8.00133 22.9796 7.89964 23.0475 7.84315 23.1606L6.04673 26.3167C5.97894 26.4186 6.01283 26.4864 6.14841 26.4864H13.9442C14.012 26.4864 14.0572 26.5204 14.0798 26.5882L15.9892 29.948C16.057 30.0611 16.1022 30.0611 16.17 29.948L22.9941 17.991L24.0674 16.1131C24.0674 16.0792 24.1013 16.0792 24.1352 16.0792C24.1691 16.0792 24.1804 16.0792 24.203 16.1131L26.1463 19.5747C26.1802 19.6199 26.2254 19.6538 26.2932 19.6538L30.0668 19.6199C30.0781 19.6199 30.1007 19.6199 30.112 19.586V19.5407L26.1576 12.5837C26.1237 12.5385 26.1237 12.4819 26.1576 12.4367L26.5644 11.7466L28.0896 9.04299C28.1235 8.99774 28.0896 8.9638 28.0444 8.9638H12.2269C12.1478 8.9638 12.1252 8.92986 12.1817 8.86199L14.1476 5.43439C14.1815 5.38914 14.1815 5.33258 14.1476 5.28733L12.2834 2.0181C12.2834 1.98416 12.2495 1.97285 12.2156 1.97285H12.1704L12.1591 1.93891ZM16.8366 1.40724C17.3789 2.34615 17.9099 3.28507 18.4296 4.24661C18.4748 4.32579 18.5426 4.35973 18.6443 4.35973H26.2141C26.4514 4.35973 26.6547 4.50679 26.8129 4.81222L28.7901 8.31901C29.0387 8.77149 29.1291 8.97511 28.824 9.46154C28.4738 10.0498 28.1235 10.638 27.7846 11.2376L27.2761 12.1425C27.1293 12.414 26.9711 12.5272 27.2309 12.8439L30.8577 19.1787C31.0949 19.586 31.0046 19.8462 30.8125 20.2421C30.2137 21.3167 29.6036 22.3801 28.9822 23.4321C28.7675 23.8054 28.4964 23.9412 28.0557 23.9412C26.9937 23.9299 25.9429 23.9412 24.8809 23.9525C24.8357 23.9525 24.8018 23.9864 24.7679 24.0204C23.5477 26.1923 22.3162 28.3416 21.0734 30.4909C20.8361 30.8982 20.5537 31 20.0792 31H15.9666C15.6841 31 15.4808 30.8869 15.3339 30.6267L13.5036 27.448C13.4923 27.4027 13.4358 27.3801 13.3906 27.3801H6.40827C6.02413 27.414 5.65129 27.3801 5.32364 27.267L3.14308 23.4887C3.0075 23.2398 3.0075 23.0023 3.14308 22.7534L4.78133 19.8688C4.82652 19.7896 4.82652 19.6878 4.78133 19.5973C3.92266 18.1041 3.07529 16.6222 2.22792 15.129L1.15459 13.2285C0.93992 12.81 0.917323 12.5611 1.29017 11.9163C1.92287 10.8077 2.54427 9.6991 3.18827 8.5905C3.36904 8.27376 3.60631 8.13801 3.97915 8.13801H7.5155C7.58329 8.13801 7.62848 8.10407 7.66238 8.05882L11.4812 1.3733C11.6168 1.15837 11.7975 1.03394 12.0461 1.03394H14.2154L15.605 1C16.0796 1 16.5993 1.04525 16.8253 1.47511V1.40724H16.8366Z" fill="currentColor"/>
</svg>
