<svg width="32" height="32" viewBox="0 0 32 32" fill="none" xmlns="http://www.w3.org/2000/svg">
<path fill-rule="evenodd" clip-rule="evenodd" d="M13.1823 12.2037C16.3235 12.2037 18.1885 14.7897 18.1885 14.7897L15.6339 17.0671C14.4864 15.0436 14.1027 14.1516 12.1932 13.9075V19.6589C12.6605 19.8234 13.1501 19.9063 13.6426 19.9043C17.3693 19.9043 20.8446 14.7985 20.8446 14.7985C20.8446 14.7985 17.6261 10.1779 12.7225 10.3394C12.5438 10.3462 12.367 10.3559 12.1932 10.3705V12.2663C12.5216 12.2268 12.8517 12.2059 13.1823 12.2037Z" fill="currentColor"/>
<path fill-rule="evenodd" clip-rule="evenodd" d="M12.1935 6V8.83242C12.3696 8.81705 12.5461 8.80624 12.7228 8.8C19.5423 8.55651 23.9865 14.7164 23.9865 14.7164C23.9865 14.7164 18.8821 21.2823 13.5657 21.2823C13.1056 21.2826 12.6464 21.2396 12.1935 21.1539V22.906C12.5597 22.955 12.9398 22.9845 13.3358 22.9845C18.2841 22.9845 21.8622 20.3103 25.3274 17.1478C25.9015 17.6345 28.2535 18.8179 28.7365 19.336C25.4423 22.255 17.7643 24.6046 13.413 24.6046C12.9916 24.6046 12.5889 24.5784 12.1935 24.5385V27H31V6H12.1935ZM8.77484 15.5565C8.77484 15.5565 10.2708 13.663 12.1864 13.9062C12.1886 13.9062 12.191 13.9075 12.1932 13.9075V12.2663C8.54376 12.6835 6.34648 15.2595 6.34648 15.2595C6.34648 15.2595 7.61721 20.2915 12.1935 21.1539L12.1932 19.6589C9.6122 18.7423 8.77484 15.5565 8.77484 15.5565Z" fill="currentColor"/>
<path fill-rule="evenodd" clip-rule="evenodd" d="M4.06495 15.041C4.06495 15.041 6.77651 10.8063 12.1932 10.3705L12.1935 8.83242C6.19476 9.34275 1 14.7164 1 14.7164C1 14.7164 3.94234 23.7146 12.1935 24.5385V22.906C6.13837 22.0997 4.06495 15.041 4.06495 15.041Z" fill="currentColor"/>
</svg>
